<svg width="18" height="22" viewBox="0 0 18 22" fill="none" xmlns="http://www.w3.org/2000/svg">
<path d="M14.671 11.7512C14.683 10.7237 14.969 9.71744 15.498 8.83812C16.027 7.95881 16.779 7.23876 17.676 6.75122C17.055 5.89512 16.223 5.20744 15.262 4.75122C14.301 4.295 13.241 4.08481 12.176 4.14122C10.377 4.14122 8.926 5.14122 8.051 5.14122C7.139 5.14122 5.876 4.17622 4.376 4.20122C2.501 4.22622 0.751 5.27622 0.001 6.92622C-1.624 10.3012 0.626 15.1762 2.201 17.8762C2.976 19.2012 3.901 20.6512 5.176 20.6012C6.426 20.5512 6.926 19.7762 8.426 19.7762C9.926 19.7762 10.376 20.6012 11.726 20.5762C13.101 20.5512 13.901 19.2512 14.651 17.9262C15.201 17.0012 15.626 16.0012 15.901 14.9512C14.776 14.4762 14.671 13.0012 14.671 11.7512ZM12.051 2.80122C12.926 1.75122 13.476 0.376221 13.301 -0.998779C11.976 -0.873779 10.476 -0.0737793 9.551 1.05122C8.726 2.02622 8.076 3.42622 8.276 4.75122C9.726 4.87622 11.176 3.85122 12.051 2.80122Z" fill="black"/>
</svg>
