<?xml version="1.0" encoding="UTF-8" standalone="no"?>
<svg xmlns:cc="http://creativecommons.org/ns#" xmlns:dc="http://purl.org/dc/elements/1.1/"
    xmlns:rdf="http://www.w3.org/1999/02/22-rdf-syntax-ns#" height="218.66667" id="svg2"
    version="1.1" viewBox="0 0 1150.6667 218.66667" width="1150.6667"
    xmlns="http://www.w3.org/2000/svg" xml:space="preserve"><metadata
     id="metadata8"><rdf:RDF><cc:Work
         rdf:about=""><dc:format>image/svg+xml</dc:format><dc:type
    rdf:resource="http://purl.org/dc/dcmitype/StillImage" /></cc:Work></rdf:RDF></metadata>
    <defs id="defs6" />
    <g id="g10" transform="matrix(0.33333333,0,0,0.33333333,0,8.8e-6)"><g
       id="g12"
       transform="matrix(4,0,0,4,-132.53125,-68)"><path
         style="fill:#ef5713;fill-opacity:1;fill-rule:evenodd;stroke:none"
         d="m 114.65273,17 c 45.02058,0 81.51811,36.497494 81.51811,81.518051 0,45.022229 -36.49753,81.518099 -81.51811,81.518099 -45.022214,0 -81.51975,-36.49587 -81.51975,-81.518099 C 33.13298,53.497494 69.630516,17 114.65273,17 Z"
         id="path14" /></g>
        <g id="g16" transform="matrix(4,0,0,4,-115.74219,-55.148438)"><path
         style="fill:#ffffff;fill-opacity:1;fill-rule:evenodd;stroke:none"
         d="m 99.456772,98.607666 3.306548,-7.762054 h -8.726119 z m -1.424622,-15.925262 4.73117,8.163208 3.48152,-8.163208 z m 0,0 4.83023,-9.878357 H 92.356674 Z m -26.589447,-9.878357 10.428101,20.29985 10.48587,-20.29985 z m 10.428101,20.29985 -11.004196,21.242493 h 21.88298 0.01486 L 87.53636,104.13126 81.870802,93.103897 Z m 5.384933,-10.421493 5.218155,11.35585 1.561661,-3.192642 h 0.0016 l 3.994949,-8.163208 H 87.255689 Z m 5.218155,11.35585 -4.93753,10.093006 h 9.563064 z m 6.98288,4.569412 -2.357346,5.523594 h 6.216914 z m -6.672516,15.738724 h 8.988584 l -4.673414,-10.21513 -4.334976,10.21513 h 0.01981 z m 9.736394,18.9528 -9.7562,-18.9528 -8.090576,18.9528 z m 7.93374,-18.9528 -0.002,-0.002 -0.002,0.002 -1.55174,-2.2253 -5.583,-7.98983 h 4.47034 0.6108 2.0536 0.002 0.002 0.002 2.05361 5.08118 l -7.13642,10.21513 z M 83.340042,57.289837 98.180695,37.93919 H 72.141022 Z m 17.087398,0 H 83.340042 l 9.016632,15.51421 z m -28.984737,15.51421 11.897339,-15.51421 h -19.86737 z m 0,0 H 40.595909 l 15.028862,20.626709 z m -0.576095,41.542343 -9.818955,18.9528 h 23.626221 z m -31.282616,0 H 70.866608 L 55.624771,93.430756 Z m 38.508156,34.3927 H 95.927353 L 84.673874,133.29919 Z M 121.45036,98.607666 118.1438,90.845612 h 8.7278 z m 1.42299,-15.925262 -4.72955,8.163208 -3.48151,-8.163208 z m 0,0 -4.8286,-9.878357 h 10.5057 z m 26.59107,-9.878357 -10.4281,20.29985 -10.48587,-20.29985 z m -10.4281,20.29985 11.00587,21.242493 h -21.88466 -0.0148 l 5.22809,-10.21513 5.66553,-11.027363 z m -5.38494,-10.421493 -5.21814,11.35585 -1.56164,-3.192642 -3.99825,-8.163208 z m -5.21814,11.35585 4.93755,10.093006 h -9.56308 z m -6.98288,4.569412 2.35735,5.523594 h -6.2169 z m 6.67415,15.738724 h -8.9902 l 4.6734,-10.21513 4.33499,10.21513 h -0.0182 z m -9.73636,18.9528 9.75455,-18.9528 8.09056,18.9528 z m -7.93376,-50.616786 h 0.002 0.74454 0.90132 2.56041 l -4.2079,-9.878357 -0.002,0.0033 v -0.0033 l -4.2079,9.878357 h 2.8658 0.5943 0.74614 0.002 0.002 z m 0,21.448856 h 0.002 l 1.06315,-1.84067 6.62463,-11.444978 h -6.59164 -1.09777 -0.002 -1.20509 -6.48433 l 7.68942,13.285648 v -0.003 l 0.002,0.002 v 0.002 z m 0,29.16297 v 0.005 l 8.67992,-18.9528 h -5.67383 -0.43417 -2.57029 -0.002 -0.003 -2.41675 -0.58769 -5.6738 l 6.6973,14.62276 1.98094,4.33004 0.002,-0.002 v 0.002 -0.003 l 0.002,-0.002 z M 137.56714,57.289837 122.72644,37.93919 h 26.03966 z m -17.0858,0 h 17.0858 l -9.01669,15.51421 z m 28.98308,15.51421 -11.89728,-15.51421 h 19.86731 z m 0,0 h 30.84681 l -15.0289,20.626709 z m 0.57777,41.542343 9.81728,18.9528 h -23.62621 z m 31.28098,0 h -31.28098 l 15.24014,-20.915634 z m -38.50821,34.3927 h -17.83519 l 11.25349,-15.4399 z M 110.45439,37.93919 h 0.002 3.35773 2.62641 6.28628 L 110.45476,21.938 l -0.002,0.0016 V 21.938 L 98.180715,37.93919 h 7.385685 1.52699 3.35771 0.002 0.002 z m 0,19.350647 h 0.002 1.22986 0.74944 8.04602 L 110.45476,37.93919 v 0.0016 l -0.002,-0.0016 -10.0253,19.350647 h 8.04435 0.416 1.56329 0.003 z m 0,15.51421 h 1.92151 5.66885 l -4.57931,-9.360043 -3.00942,-6.154167 -0.002,0.0017 v -0.0017 0.0033 h -0.002 v -0.0033 l -7.59036,15.51421 h 6.08484 1.50386 0.003 z m 0,75.931763 v 0.003 -0.002 l 0.002,0.002 2.047,-3.98666 5.88513,-11.45324 h -5.09275 -0.36483 -2.47455 -0.002 -0.002 -0.002 -2.21207 -0.6273 -5.09106 l 7.93209,15.4399 v -0.003 h 0.002 z m 0,19.93506 14.52538,-19.93178 h -9.8949 -2.81627 -1.81258 -0.002 -0.002 -0.002 -1.15886 -3.47163 -9.893237 l 14.525387,19.93178 h 0.002 z"
         id="path18" /></g>
        <g id="g20" transform="matrix(4,0,0,4,156.67187,-24.289063)"><path
         style="fill:#ffffff;fill-opacity:1;fill-rule:evenodd;stroke:none"
         d="m 219.06296,33.789993 h -17.53479 c -5.59949,0 -10.18054,4.580941 -10.18054,10.180489 v 97.423468 h 17.53491 c 5.6011,0 10.18042,-4.58096 10.18042,-10.18048 z m 29.29172,0 h 15.05029 2.77838 41.57696 v 17.978844 c 0,5.355164 -4.38452,9.736374 -9.74462,9.736374 h -31.83234 v 13.805664 h 34.60547 v 17.980499 c 0,5.353531 -4.38593,9.734706 -9.74457,9.734706 h -24.8609 v 28.48622 c 0,5.43439 -4.45068,9.88165 -9.89002,9.88165 H 238.46637 V 43.671669 c 0,-5.436081 4.4505,-9.881676 9.88831,-9.881676 z m -76.40885,0 h -17.53647 c -5.59945,0 -10.18039,4.580941 -10.18039,10.180489 v 97.423468 h 17.53641 c 5.59955,0 10.18045,-4.58096 10.18045,-10.18048 z m 178.89371,0 h -17.82697 c -5.43933,0 -9.88989,4.445595 -9.88989,9.881676 v 97.722281 h 51.63861 c 5.36017,0 9.74457,-4.38119 9.74457,-9.73636 v -17.98054 h -33.66632 z"
         id="path22" /></g>
        <g id="g24" transform="matrix(4,0,0,4,947.15625,16.953125)"><path
         style="fill:#ffffff;fill-opacity:1;fill-rule:nonzero;stroke:none"
         d="m 495.25909,131.08273 c -1.2727,0 -2.39526,-0.24432 -3.36254,-0.7247 h -0.0115 c -1.12097,-0.55798 -1.97278,-1.39987 -2.55383,-2.51581 L 463.15946,78.53614 v 47.59914 1.09781 c 0,2.11627 -1.7301,3.84964 -3.84802,3.84964 h -7.57397 c -2.1178,0 -3.84949,-1.73337 -3.84949,-3.84964 V 53.481987 c 0,-2.116318 1.73169,-3.848007 3.84949,-3.848007 h 7.99804 c 2.00428,0 3.49488,0.313659 4.47046,0.937652 l -0.003,0.0049 c 0.49695,0.313675 0.95105,0.719742 1.36853,1.213349 l 0.007,-0.0049 c 0.35633,0.420959 0.68176,0.90625 0.97876,1.447754 l 0.0231,0.0462 25.86487,48.795945 V 54.57813 53.481984 c 0,-2.116318 1.73157,-3.848007 3.84973,-3.848007 h 7.57386 c 2.11779,0 3.84973,1.731689 3.84973,3.848007 v 73.751106 c 0,2.11627 -1.73194,3.84964 -3.84973,3.84964 h -8.60914 z"
         id="path26" /></g>
        <g id="g28" transform="matrix(4,0,0,4,720.8125,16.953125)"><path
         style="fill:#ffffff;fill-opacity:1;fill-rule:nonzero;stroke:none"
         d="m 408.31024,131.08273 c -1.27429,0 -2.39514,-0.24432 -3.36255,-0.7247 h -0.0117 c -1.12255,-0.55798 -1.97241,-1.39987 -2.55371,-2.51581 L 376.21224,78.53614 v 47.59914 1.09781 c 0,2.11627 -1.73328,3.84964 -3.84985,3.84964 h -7.57398 c -2.11755,0 -3.84949,-1.73337 -3.84949,-3.84964 V 53.481987 c 0,-2.116318 1.73194,-3.848007 3.84949,-3.848007 h 7.99829 c 2.00403,0 3.49463,0.313659 4.47046,0.937652 l -0.002,0.0049 c 0.49341,0.313675 0.95069,0.719742 1.36658,1.213349 l 0.007,-0.0049 c 0.35656,0.420959 0.68164,0.90625 0.97876,1.447754 l 0.0232,0.0462 25.8645,48.795945 V 54.57813 53.481984 c 0,-2.116318 1.73206,-3.848007 3.84815,-3.848007 h 7.5758 c 2.11768,0 3.84949,1.731689 3.84949,3.848007 v 73.751106 c 0,2.11627 -1.73181,3.84964 -3.84949,3.84964 h -8.60913 z"
         id="path30" /></g>
        <g id="g32" transform="matrix(4,0,0,4,1151.8672,16.953125)"><path
         style="fill:#ffffff;fill-opacity:1;fill-rule:evenodd;stroke:none"
         d="m 542.0376,49.63398 h 0.62073 23.84582 4.45349 c 2.11841,0 3.84986,1.731689 3.84986,3.848007 v 7.575546 c 0,2.116272 -1.73145,3.847992 -3.84986,3.847992 h -2.31433 -22.6604 c -2.30115,0 -4.18298,1.883576 -4.18298,4.184769 v 13.63063 h 26.84338 2.31433 c 2.11841,0 3.84986,1.73169 3.84986,3.849671 v 7.575516 c 0,2.116302 -1.73145,3.848022 -3.84986,3.848022 h -2.31433 -26.84338 v 13.630597 c 0,2.30124 1.88183,4.18482 4.18298,4.18482 h 22.6604 2.31433 c 2.11841,0 3.84986,1.73167 3.84986,3.84802 v 7.57552 c 0,2.11627 -1.73145,3.84964 -3.84986,3.84964 h -4.45349 -23.84582 -0.62073 c -8.5315,0 -15.51062,-6.98119 -15.51062,-15.51258 V 65.14489 c 0,-8.531326 6.97912,-15.51091 15.51062,-15.51091 z"
         id="path34" /></g>
        <g id="g36" transform="matrix(4,0,0,4,586.36719,16.953125)"><path
         style="fill:#ffffff;fill-opacity:1;fill-rule:evenodd;stroke:none"
         d="m 324.80261,49.63398 h 0.62079 23.84577 4.45568 c 2.11615,0 3.8479,1.731689 3.8479,3.848007 v 7.575546 c 0,2.116272 -1.73175,3.847992 -3.8479,3.847992 h -2.3161 -22.65887 c -2.30298,0 -4.18476,1.883576 -4.18476,4.184769 v 13.63063 h 26.84363 2.3161 c 2.11615,0 3.8479,1.73169 3.8479,3.849671 v 7.575516 c 0,2.116302 -1.73175,3.848022 -3.8479,3.848022 h -2.3161 -26.84363 v 0.937622 11.199035 17.1023 c 0,2.11627 -1.73168,3.84964 -3.84967,3.84964 h -7.57397 c -2.1178,0 -3.84949,-1.73337 -3.84949,-3.84964 V 110.13079 98.931755 65.14489 c 0,-8.531326 6.97949,-15.51091 15.51062,-15.51091 z"
         id="path38" /></g>
        <g id="g40" transform="matrix(4,0,0,4,829.875,16.640625)"><path
         style="fill:#ffffff;fill-opacity:1;fill-rule:evenodd;stroke:none"
         d="m 442.91217,92.238052 h -14.81433 l 7.4071,-25.99179 z M 422.99359,56.559341 402.99933,126.72322 c -0.69495,2.43985 0.89453,4.43736 3.53259,4.43736 h 5.67883 c 2.63782,0 5.36512,-1.99751 6.06177,-4.43736 l 5.47388,-19.21196 h 23.51733 l 5.47571,19.21196 c 0.69507,2.43985 3.42212,4.43736 6.05994,4.43736 h 5.67907 c 2.63782,0 4.22754,-1.99751 3.53235,-4.43736 L 448.01813,56.559341 c -2.70716,-9.497024 -22.37989,-9.289032 -25.02454,0 z"
         id="path42" /></g>
        <g id="g44" transform="matrix(4,0,0,4,679.49219,16.953125)"><path
         style="fill:#ffffff;fill-opacity:1;fill-rule:evenodd;stroke:none"
         d="m 345.06592,53.481987 v 73.751103 c 0,2.11627 1.73169,3.84964 3.84949,3.84964 h 7.57568 c 2.11633,0 3.84778,-1.73337 3.84778,-3.84964 V 53.481987 c 0,-2.116318 -1.73145,-3.848007 -3.84778,-3.848007 h -7.57568 c -2.1178,0 -3.84949,1.731689 -3.84949,3.848007 z"
         id="path46" /></g>
        <g id="g48" transform="matrix(4,0,0,4,1058.7422,16.953125)"><path
         style="fill:#ffffff;fill-opacity:1;fill-rule:evenodd;stroke:none"
         d="m 535.18585,49.632988 h -15.30786 c -0.0775,0 -0.15686,0.0033 -0.23437,0.0083 l -0.7677,-0.0066 c -2.49585,-0.02145 -4.99024,0.275665 -7.4336,0.822082 -2.64111,0.592652 -5.17004,1.617798 -7.55078,2.999497 -2.57202,1.495621 -4.78564,3.547577 -6.67065,5.962677 -2.16919,2.77829 -3.65491,6.127777 -4.69507,9.574661 -1.31885,4.371323 -1.77295,9.138825 -1.77295,13.72142 v 15.283112 c 0,4.538043 0.45898,9.242793 1.77295,13.567883 1.04345,3.43367 2.53735,6.765 4.69336,9.53668 1.88672,2.42336 4.09887,4.48192 6.66272,6.00887 2.37683,1.4164 4.90283,2.46966 7.55053,3.09032 2.44324,0.57282 4.94104,0.89972 7.44349,0.87656 l 0.76123,-0.007 c 0.0807,0.005 0.16003,0.008 0.24084,0.008 h 15.30786 c 2.11621,0 3.8479,-1.73166 3.8479,-3.84805 v -7.57542 c 0,-2.11798 -1.73169,-3.84969 -3.8479,-3.84969 h -15.0122 -0.29566 c -0.0643,0 -0.12891,0.003 -0.19141,0.007 l -0.68676,0.007 c -2.29126,0.0231 -4.50684,-0.12217 -6.52722,-1.33056 -2.04029,-1.21993 -3.41236,-3.26857 -4.35657,-5.54502 -1.36194,-3.28348 -1.70703,-7.38402 -1.70703,-10.946453 V 82.715145 c 0,-2.926849 0.2146,-6.089782 0.98547,-8.906051 1.7533,-6.411698 5.53528,-8.944046 11.61035,-8.909348 l 0.74426,0.0033 0.12891,0.0033 h 0.29566 15.0122 c 2.11621,0 3.8479,-1.731659 3.8479,-3.847992 v -7.575546 c 0,-2.117951 -1.73169,-3.849625 -3.8479,-3.849625 z"
         id="path50" /></g></g></svg>