<svg fill="none" height="20" viewBox="0 0 20 20" width="20" xmlns="http://www.w3.org/2000/svg">
    <path
        d="M8.77116 13.7917L14.667 7.89585L13.7087 6.95835L8.77116 11.8959L6.27116 9.39585L5.33366 10.3334L8.77116 13.7917ZM10.0003 18.3334C8.86144 18.3334 7.78505 18.1146 6.77116 17.6771C5.75727 17.2396 4.87185 16.6424 4.11491 15.8854C3.35796 15.1285 2.76074 14.2431 2.32324 13.2292C1.88574 12.2153 1.66699 11.1389 1.66699 10C1.66699 8.84724 1.88574 7.76391 2.32324 6.75002C2.76074 5.73613 3.35796 4.85419 4.11491 4.10419C4.87185 3.35419 5.75727 2.76044 6.77116 2.32294C7.78505 1.88544 8.86144 1.66669 10.0003 1.66669C11.1531 1.66669 12.2364 1.88544 13.2503 2.32294C14.2642 2.76044 15.1462 3.35419 15.8962 4.10419C16.6462 4.85419 17.2399 5.73613 17.6774 6.75002C18.1149 7.76391 18.3337 8.84724 18.3337 10C18.3337 11.1389 18.1149 12.2153 17.6774 13.2292C17.2399 14.2431 16.6462 15.1285 15.8962 15.8854C15.1462 16.6424 14.2642 17.2396 13.2503 17.6771C12.2364 18.1146 11.1531 18.3334 10.0003 18.3334Z"
        fill="#1F935F" />
</svg>
