<svg fill="none" height="71" viewBox="0 0 158 71" width="158" xmlns="http://www.w3.org/2000/svg">
    <g clip-path="url(#clip0_5868_30229)">
        <path clip-rule="evenodd"
            d="M35.6441 0C55.325 0 71.2881 15.8936 71.2881 35.5032C71.2881 55.1128 55.3315 71.0064 35.6441 71.0064C15.9567 71.0064 0 55.1064 0 35.5032C0 15.9 15.9567 0 35.6441 0Z"
            fill="#F37021" fill-rule="evenodd" />
        <path clip-rule="evenodd"
            d="M30.8349 36.9359L32.2797 33.5525H28.4655L30.8349 36.9359ZM30.2121 30.0028L32.2797 33.5589L33.8015 30.0028H30.2121ZM30.2121 30.0028L32.3246 25.6984H27.7335L30.2121 30.0028ZM18.5897 25.6984L23.1487 34.5374L27.7335 25.6984H18.5897ZM23.1487 34.5374L18.3393 43.7858H27.9133L25.6273 39.3343L23.1487 34.531V34.5374ZM25.5053 29.9964L27.7848 34.9404L28.4655 33.5525L30.2121 29.9964H25.4989H25.5053ZM27.7848 34.9404L25.6273 39.3343H29.8075L27.7848 34.9404ZM30.8349 36.9295L29.8011 39.3343H32.5173L30.8285 36.9295H30.8349ZM27.9197 43.7858H31.8495L29.8075 39.3407L27.9133 43.7858H27.9197ZM32.1769 52.0428L27.9133 43.7858L24.3752 52.0428H32.1769ZM35.6444 43.7922L34.9637 42.82L32.5237 39.3407H38.7651L35.6444 43.7922ZM23.7909 18.9444L30.2763 10.5147H18.8915L23.7909 18.9444ZM31.2587 18.9444H23.7909L27.7335 25.6984L31.2587 18.9444ZM18.5897 25.6984L23.7909 18.9444H15.103L18.5897 25.6984ZM18.5897 25.6984H5.09875L11.6676 34.6781L18.5833 25.6984H18.5897ZM18.3393 43.7922L14.0435 52.0492H24.3752L18.3393 43.7922ZM4.66211 43.7922H18.3393L11.6741 34.6845L4.66211 43.7922ZM21.4985 58.7712H29.2938L24.3752 52.0492L21.4985 58.7712ZM40.4539 36.9359L39.0091 33.5525H42.8233L40.4539 36.9359ZM41.0767 30.0028L39.0091 33.5589L37.4873 30.0028H41.0767ZM41.0767 30.0028L38.9641 25.6984H43.5553L41.0767 30.0028ZM52.7055 25.6984L48.1465 34.5374L43.5617 25.6984H52.7055ZM48.1465 34.5374L52.9559 43.7858H43.3819L45.6679 39.3343L48.1465 34.531V34.5374ZM45.7899 29.9964L43.5104 34.9404L42.8297 33.5525L41.0831 29.9964H45.7963H45.7899ZM43.5104 34.9404L45.6679 39.3343H41.4877L43.5104 34.9404ZM40.4603 36.9295L41.4941 39.3343H38.7779L40.4667 36.9295H40.4603ZM43.3755 43.7858H39.4457L41.4877 39.3407L43.3819 43.7858H43.3755ZM39.1183 52.0428L43.3819 43.7858L46.92 52.0428H39.1183ZM35.6508 29.9964H37.4937L35.6508 25.692L33.8079 29.9964H35.6508ZM35.6508 39.3407L36.1131 38.5412L39.0091 33.5589H32.2861L35.6508 39.3471V39.3407ZM35.6508 52.0428L39.4457 43.7922H31.8559L34.7839 50.1624L35.6508 52.0492V52.0428ZM47.5043 18.9444L41.0189 10.5147H52.4037L47.5043 18.9444ZM40.0365 18.9444H47.5043L43.5617 25.6984L40.0365 18.9444ZM52.7119 25.6984L47.5108 18.9444H56.1986L52.7119 25.6984ZM52.7119 25.6984H66.1964L59.6276 34.6781L52.7119 25.6984ZM52.9624 43.7922L57.2581 52.0492H46.9264L52.9624 43.7922ZM66.6395 43.7922H52.9624L59.6276 34.6845L66.6395 43.7922ZM49.8031 58.7712H42.0078L46.9264 52.0492L49.8031 58.7712ZM35.6444 10.5211H41.0125L35.6444 3.54968L30.2763 10.5147H33.5061H34.1739H35.6444V10.5211ZM35.6444 18.9508H40.0301L35.6444 10.5211L31.2587 18.9508H35.6444ZM35.6444 25.7048H38.9641L36.9607 21.6307L35.6444 18.9508L32.3246 25.7048H35.6444ZM35.6444 58.7712L36.5369 57.0379L39.1118 52.0492H32.1769L35.6444 58.7712ZM35.6444 67.4503L41.995 58.7712H29.2938L35.6444 67.4503Z"
            fill="white" fill-rule="evenodd" />
        <path clip-rule="evenodd"
            d="M103.201 8.46808H97.3902C95.5345 8.46808 94.0191 9.97749 94.0191 11.8259V43.9713H99.8303C101.686 43.9713 103.201 42.4619 103.201 40.6135V8.46808ZM112.904 8.46808H132.578V14.397C132.578 16.1623 131.127 17.6077 129.349 17.6077H118.805V22.1615H130.267V28.0905C130.267 29.8557 128.816 31.3012 127.037 31.3012H118.805V40.6966C118.805 42.4874 117.328 43.9585 115.53 43.9585H109.623V11.7299C109.623 9.93912 111.1 8.46808 112.897 8.46808H112.904ZM87.5915 8.46808H81.7803C79.9246 8.46808 78.4092 9.97749 78.4092 11.8259V43.9713H84.2204C86.0761 43.9713 87.5915 42.4619 87.5915 40.6135V8.46808ZM146.846 8.46808H140.939C139.134 8.46808 137.664 9.93272 137.664 11.7299V43.9713C143.366 43.9713 149.068 43.9713 154.77 43.9713C156.542 43.9713 158 42.5258 158 40.7606V34.8316H146.846V8.46808Z"
            fill="#242056" fill-rule="evenodd" />
        <path
            d="M126.844 63.9326C126.619 63.9326 126.427 63.8878 126.253 63.8047C126.054 63.7088 125.907 63.5616 125.804 63.3634L121.213 54.7482V63.2546C121.213 63.6256 120.911 63.9262 120.539 63.9262H119.209C118.837 63.9262 118.535 63.6256 118.535 63.2546V50.3735C118.535 50.0025 118.837 49.7019 119.209 49.7019H120.609C120.962 49.7019 121.219 49.7595 121.393 49.8682C121.482 49.9258 121.56 49.9961 121.63 50.0793C121.694 50.1496 121.752 50.2392 121.804 50.3287L126.337 58.8607V50.3735C126.337 50.0025 126.639 49.7019 127.011 49.7019H128.34C128.713 49.7019 129.015 50.0025 129.015 50.3735V63.2546C129.015 63.6256 128.713 63.9262 128.34 63.9262H126.831L126.844 63.9326Z"
            fill="#242056" />
        <path
            d="M101.673 63.9326C101.449 63.9326 101.256 63.8878 101.083 63.8047C100.883 63.7088 100.736 63.5616 100.633 63.3634L96.0419 54.7482V63.2546C96.0419 63.6256 95.7401 63.9262 95.3677 63.9262H94.0385C93.6661 63.9262 93.3643 63.6256 93.3643 63.2546V50.3735C93.3643 50.0025 93.6661 49.7019 94.0385 49.7019H95.4383C95.7915 49.7019 96.0483 49.7595 96.2217 49.8682C96.3116 49.9258 96.3886 49.9961 96.4593 50.0793C96.5235 50.1496 96.5813 50.2392 96.6327 50.3287L101.166 58.8607V50.3735C101.166 50.0025 101.468 49.7019 101.84 49.7019H103.169C103.542 49.7019 103.844 50.0025 103.844 50.3735V63.2546C103.844 63.6256 103.542 63.9262 103.169 63.9262H101.66L101.673 63.9326Z"
            fill="#242056" />
        <path clip-rule="evenodd"
            d="M144.027 49.7019H149.1C149.472 49.7019 149.774 50.0025 149.774 50.3735V51.6974C149.774 52.0684 149.472 52.369 149.1 52.369H144.721C144.316 52.369 143.989 52.6952 143.989 53.0981V55.4774H149.1C149.472 55.4774 149.774 55.778 149.774 56.1489V57.4729C149.774 57.8438 149.472 58.1444 149.1 58.1444H143.989V60.5237C143.989 60.9266 144.316 61.2528 144.721 61.2528H149.1C149.472 61.2528 149.774 61.5534 149.774 61.9243V63.2483C149.774 63.6192 149.472 63.9198 149.1 63.9198H144.027C142.531 63.9198 141.305 62.6982 141.305 61.208V52.401C141.305 50.9107 142.531 49.6891 144.027 49.6891V49.7019Z"
            fill="#242056" fill-rule="evenodd" />
        <path clip-rule="evenodd"
            d="M81.1322 49.7019H86.2049C86.5774 49.7019 86.8792 50.0025 86.8792 50.3735V51.6974C86.8792 52.0683 86.5774 52.3689 86.2049 52.3689H81.8257C81.4211 52.3689 81.0937 52.6951 81.0937 53.0981V55.4773H86.2049C86.5774 55.4773 86.8792 55.7779 86.8792 56.1489V57.4728C86.8792 57.8438 86.5774 58.1444 86.2049 58.1444H81.0937V63.2546C81.0937 63.6256 80.7919 63.9262 80.4194 63.9262H79.0902C78.7178 63.9262 78.416 63.6256 78.416 63.2546V52.4073C78.416 50.9171 79.6425 49.6955 81.1386 49.6955L81.1322 49.7019Z"
            fill="#242056" fill-rule="evenodd" />
        <path clip-rule="evenodd"
            d="M112.525 57.1338H109.924L111.222 52.5928L112.519 57.1338H112.525ZM109.032 50.9043L105.526 63.1587C105.404 63.5872 105.68 63.9326 106.142 63.9326H107.138C107.6 63.9326 108.082 63.5808 108.204 63.1587L109.167 59.8009H113.289L114.252 63.1587C114.374 63.5872 114.85 63.9326 115.318 63.9326H116.314C116.776 63.9326 117.052 63.5808 116.93 63.1587L113.424 50.9043C112.949 49.2478 109.501 49.2798 109.032 50.9043Z"
            fill="#242056" fill-rule="evenodd" />
        <path clip-rule="evenodd"
            d="M88.7666 50.3799V63.2611C88.7666 63.632 89.0684 63.9326 89.4408 63.9326H90.77C91.1424 63.9326 91.4442 63.632 91.4442 63.2611V50.3799C91.4442 50.0089 91.1424 49.7083 90.77 49.7083H89.4408C89.0684 49.7083 88.7666 50.0089 88.7666 50.3799Z"
            fill="#242056" fill-rule="evenodd" />
        <path clip-rule="evenodd"
            d="M138.742 49.7019H136.058C136.058 49.7019 136.033 49.7019 136.02 49.7019H135.885C135.448 49.7019 135.012 49.7467 134.582 49.8426C134.119 49.9449 133.676 50.124 133.259 50.3671C132.809 50.6293 132.418 50.9875 132.09 51.4096C131.711 51.8957 131.448 52.4777 131.268 53.0789C131.037 53.84 130.96 54.6779 130.96 55.4773V58.1444C130.96 58.9375 131.043 59.7561 131.268 60.5172C131.448 61.1184 131.711 61.7005 132.09 62.1802C132.424 62.6023 132.809 62.9604 133.259 63.2291C133.676 63.4785 134.119 63.6576 134.582 63.7663C135.012 63.8686 135.448 63.9262 135.885 63.9198H136.02C136.02 63.9198 136.046 63.9198 136.065 63.9198H138.749C139.121 63.9198 139.423 63.6192 139.423 63.2483V61.9243C139.423 61.5534 139.121 61.2528 138.749 61.2528H136.065C136.065 61.2528 136.039 61.2528 136.033 61.2528H135.911C135.506 61.2528 135.121 61.2336 134.768 61.0225C134.408 60.8114 134.171 60.4533 134.004 60.0567C133.766 59.4811 133.702 58.7648 133.702 58.1444V55.4773C133.702 54.9657 133.74 54.4156 133.875 53.9231C134.183 52.8039 134.845 52.3626 135.911 52.369H136.039H136.065H138.749C139.121 52.369 139.423 52.0684 139.423 51.6974V50.3735C139.423 50.0025 139.121 49.7019 138.749 49.7019H138.742Z"
            fill="#242056" fill-rule="evenodd" />
    </g>
    <defs>
        <clipPath id="clip0_5868_30229">
            <rect fill="white" height="71" width="158" />
        </clipPath>
    </defs>
</svg>
